<?xml version="1.0" encoding="UTF-8" standalone="no"?>
<svg xmlns="http://www.w3.org/2000/svg" xmlns:xlink="http://www.w3.org/1999/xlink" viewBox="0 0 930 540">
  <defs>
    <style>.cls-1{fill:#e94e1b;}.cls-1,.cls-2,.cls-3,.cls-4,.cls-5,.cls-6,.cls-7,.cls-8,.cls-9,.cls-10,.cls-11,.cls-12,.cls-13,.cls-14,.cls-15,.cls-16,.cls-17,.cls-18,.cls-19,.cls-20,.cls-21,.cls-22,.cls-23,.cls-24,.cls-25,.cls-26,.cls-27,.cls-28,.cls-29,.cls-30{stroke-width:0px;}.cls-2{fill:#343434;}.cls-3{fill:#377f94;}.cls-4{fill:#87b2bf;}.cls-5{fill:#283242;}.cls-6{fill:#d0aa8b;}.cls-7{fill:#b6b6b6;}.cls-8{fill:#b9d7dc;}.cls-9{fill:url(#Naamloos_verloop_24);}.cls-10{fill:#000;}.cls-11{fill:#debb99;}.cls-12{fill:#ededed;}.cls-13{fill:#e35c55;}.cls-14{fill:#a24184;}.cls-15{fill:#003e53;}.cls-16{fill:#377f95;}.cls-17{fill:#007cb9;}.cls-18{fill:#283241;}.cls-19{fill:#d4ebf3;}.cls-20{fill:#b43f38;}.cls-21{fill:#86b1be;}.cls-22{fill:#85b0bd;isolation:isolate;opacity:.2;}.cls-23{fill:#414141;}.cls-24{fill:url(#Naamloos_verloop_2);}.cls-25{fill:#cc9787;}.cls-26{fill:#fff;}.cls-27{fill:#efefef;}.cls-28{fill:#00526e;}.cls-29{fill:#ddad9c;}.cls-30{fill:#e1700d;}</style>
    <linearGradient gradientTransform="translate(0 1862) scale(1 -1)" gradientUnits="userSpaceOnUse" id="Naamloos_verloop_24" x1="-143.607" x2="644.841" y1="1604" y2="1604">
      <stop offset="0" stop-color="#fff"/>
      <stop offset=".6" stop-color="#fff"/>
      <stop offset=".9" stop-color="#f3f6f7" stop-opacity=".5"/>
      <stop offset="1" stop-color="#eaf0f1" stop-opacity="0"/>
    </linearGradient>
    <linearGradient gradientTransform="translate(0 1862) scale(1 -1)" gradientUnits="userSpaceOnUse" id="Naamloos_verloop_2" x1="527.315" x2="742.087" y1="1794.548" y2="1794.548">
      <stop offset="0" stop-color="#a8418a"/>
      <stop offset="1" stop-color="#ff9100"/>
    </linearGradient>
  </defs>
  <g id="Neuzen">
    <g id="blauw_vlak_en_neus_">
      <path class="cls-9" d="M133.4,516h704.767V0L93.878,328.651c-96.792,42.74-66.286,187.349,39.522,187.349Z"/>
    </g>
  </g>
  <g id="Primaire_Hero">
    <rect class="cls-26" height="277" width="183" x="356.655" y="80.311"/>
    <path class="cls-21" d="M348.083,72.289v295.838h200.508V72.289h-200.508ZM364.868,143.062h37.79v43.754h-37.77l-.02-43.754ZM364.894,198.511h37.765v45.916h-37.744l-.021-45.916ZM402.659,250.275v48.734h-37.72l-.022-48.734h37.742ZM452.398,244.427v-45.916h38.046v45.916h-38.046ZM490.444,250.275v48.734h-38.046v-48.734h38.046ZM452.398,186.815v-43.754h38.046v43.754h-38.046ZM408.505,244.427v-45.916h38.047v45.916h-38.047ZM446.552,250.275v48.734h-38.047v-48.734h38.047ZM408.505,186.815v-43.754h38.047v43.754h-38.047ZM408.505,137.214v-48.157h38.047v48.157h-38.047ZM446.552,304.857v46.504h-38.047v-46.504h38.047ZM452.398,304.857h38.046v46.504h-38.046v-46.504ZM452.398,137.214v-48.157h38.046v48.157h-38.046ZM496.29,250.275h35.612l.022,48.734h-35.634v-48.734ZM496.29,244.427v-45.916h35.589l.021,45.916h-35.609ZM496.29,186.815v-43.754h35.563l.02,43.754h-35.583ZM496.29,137.214v-48.157h35.539l.022,48.157h-35.561ZM402.659,89.057v48.157h-37.793l-.022-48.157h37.815ZM364.942,304.857h37.717v46.504h-37.696l-.021-46.504ZM496.29,351.36v-46.504h35.637l.021,46.504h-35.657Z"/>
    <path class="cls-3" d="M536.864,84.665h-176.409s0,271.613,0,271.613l-3.991,3.991V80.674h184.391l-3.991,3.991Z"/>
    <path class="cls-28" d="M199.424,224.046s-25.676-21.825-25.676-55.204,2.568-47.501,1.284-55.204c0,0,14.122,24.392,19.257,60.339,5.135,35.947,7.703,42.366,5.135,50.069Z"/>
    <path class="cls-28" d="M214.83,212.491s-2.568-16.69-8.987-37.23c-6.419-20.541,6.419-57.771,3.851-77.029,0,0,16.69,8.987,17.973,34.663,1.284,25.676-2.568,56.488-2.568,56.488l-10.27,23.109Z"/>
    <path class="cls-16" d="M195.573,259.992s-1.284-3.851-14.122-12.838c-12.838-8.987-14.122-30.811-15.406-39.798-1.284-8.987-5.135-17.973-5.135-17.973,0,0,39.798,11.554,34.663,70.61Z"/>
    <path class="cls-16" d="M200.708,135.463s-14.122,20.541-10.27,41.082c3.851,20.541,14.122,42.366,15.406,57.771,0,0,11.554-32.095,7.703-61.623-3.851-29.528-12.838-37.23-12.838-37.23Z"/>
    <path class="cls-16" d="M219.965,224.046s-3.851-39.798,8.987-70.61c12.838-30.811,16.69-37.23,16.69-37.23,0,0,7.703,26.96-1.284,55.204-8.987,28.244-15.406,39.798-24.392,52.636Z"/>
    <path class="cls-16" d="M231.519,257.425s0-23.109,7.703-37.23c7.703-14.122,23.109-26.96,23.109-26.96,0,0,2.568,25.676-6.419,38.514-8.987,12.838-15.406,19.257-24.392,25.676Z"/>
    <path class="cls-16" d="M232.803,217.627s7.703-29.528,12.838-35.947c5.135-6.419,17.973-16.69,17.973-16.69,0,0-2.568,20.541-10.27,30.811-7.703,10.27-20.541,21.825-20.541,21.825Z"/>
    <path class="cls-16" d="M214.968,257.425s-1.284-25.676,17.973-34.663c0,0,3.851,16.69-2.568,23.109-6.419,6.419-15.406,11.554-15.406,11.554Z"/>
    <path class="cls-16" d="M198.142,290.86c-.013-.295-1.367-29.645-8.928-53.59l2.449-.772c7.665,24.273,9.032,53.954,9.045,54.251l-2.565.112Z"/>
    <path class="cls-28" d="M201.992,292.123c-1.268-45.624-5.089-79.151-5.128-79.485l2.551-.293c.038.333,3.872,33.963,5.143,79.708l-2.566.07Z"/>
    <path class="cls-16" d="M207.13,290.884c-1.271-20.329-2.557-67.612-2.569-68.087l2.566-.07c.013.475,1.298,47.714,2.566,67.997l-2.563.16Z"/>
    <path class="cls-28" d="M212.262,294.655h-2.568c0-34.322,5.089-93.238,5.14-93.83l2.558.223c-.051.589-5.13,59.396-5.13,93.607Z"/>
    <path class="cls-16" d="M213.552,293.492c-3.831-40.861,8.907-83.514,9.036-83.94l2.457.745c-.128.421-12.72,42.609-8.937,82.955l-2.556.241Z"/>
    <path class="cls-16" d="M219.97,292.204c-5.123-56.358,16.066-83.255,16.97-84.372l1.997,1.614c-.215.267-21.43,27.293-16.409,82.525l-2.558.233Z"/>
    <path class="cls-16" d="M226.384,290.804h-2.568c0-23.145,12.444-48.3,12.973-49.359l2.297,1.148c-.127.255-12.703,25.681-12.703,48.211Z"/>
    <path class="cls-18" d="M172.464,289.52h77.029s3.851,8.987,3.851,14.122-2.568,25.676-25.676,44.933h-33.379s-21.825-16.69-24.392-46.217c0,0,0-5.135,2.568-12.838Z"/>
    <polygon class="cls-28" points="144.143 489.042 131.945 489.042 116.57 479.439 627.138 479.439 611.763 489.042 599.542 489.042 604.777 516 598.09 516 588.182 489.042 583.737 489.042 575.606 489.042 168.135 489.042 160.004 489.042 155.503 489.042 145.594 516 138.907 516 144.143 489.042"/>
    <polygon class="cls-18" points="599.542 489.042 600.651 494.753 590.281 494.753 588.182 489.042 155.503 489.042 153.404 494.753 143.034 494.753 144.143 489.042 131.945 489.042 116.57 479.439 627.139 479.439 611.763 489.042 599.542 489.042"/>
    <rect class="cls-16" height="131.901" width="563.234" x="90.237" y="347.538"/>
    <rect class="cls-28" height="116.552" width="219.19" x="97.194" y="357.345"/>
    <rect class="cls-4" height="109.729" width="104.166" x="208.182" y="360.757"/>
    <rect class="cls-4" height="109.729" width="104.166" x="100.605" y="360.757"/>
    <rect class="cls-28" height="116.552" width="209.845" x="321.508" y="357.345"/>
    <rect class="cls-16" height="24.649" width="202.623" x="325.516" y="361.091"/>
    <rect class="cls-16" height="24.648" width="202.623" x="325.516" y="389.34"/>
    <rect class="cls-16" height="24.648" width="202.623" x="325.516" y="417.589"/>
    <rect class="cls-16" height="24.648" width="202.623" x="325.516" y="445.838"/>
    <polygon class="cls-28" points="539.393 357.345 535.871 357.345 535.871 473.897 539.393 473.897 646.527 473.897 646.527 357.345 539.393 357.345"/>
    <rect class="cls-4" height="109.729" width="104.166" x="538.949" y="360.757"/>
    <rect class="cls-16" height="59.791" width="5.237" x="547.165" y="385.425"/>
    <rect class="cls-28" height="58.56" width="2.758" x="545.495" y="383.297"/>
    <rect class="cls-16" height="59.791" width="5.237" x="217.879" y="385.425"/>
    <rect class="cls-16" height="59.791" width="5.237" x="189.947" y="385.425"/>
    <rect class="cls-28" height="58.56" width="2.758" x="216.597" y="383.297"/>
    <rect class="cls-28" height="58.56" width="2.758" x="193.609" y="383.297"/>
    <rect class="cls-28" height="5.237" width="22.427" x="415.848" y="367.749"/>
    <rect class="cls-28" height="5.237" width="22.427" x="415.848" y="454.035"/>
    <rect class="cls-28" height="5.237" width="22.427" x="415.848" y="425.358"/>
    <rect class="cls-28" height="5.237" width="22.427" x="415.848" y="396.554"/>
    <rect class="cls-15" height="4.549" width="19.223" x="417.45" y="365.728"/>
    <rect class="cls-15" height="4.55" width="19.223" x="417.45" y="394.411"/>
    <rect class="cls-15" height="4.55" width="19.223" x="417.45" y="423.095"/>
    <rect class="cls-15" height="4.55" width="19.223" x="417.45" y="451.779"/>
    <rect class="cls-26" height="424.504" width="215.91" x="527.315" y="55.828"/>
    <rect class="cls-12" height="3.902" width="214.772" x="527.315" y="132.242"/>
    <rect class="cls-24" height="23.249" width="214.772" x="527.315" y="55.828"/>
    <path class="cls-25" d="M546.175,475.942l-20.485,28.452s33.817,21.624,71.537-3.902l24.55-20.16-75.764-4.552.163.163Z"/>
    <path class="cls-25" d="M527.803,351.891l-51.864,36.581s13.657,32.679,50.726,26.501l1.301-63.082h-.163Z"/>
    <path class="cls-25" d="M527.803,241.498v59.831s-42.759-2.114-37.719-37.719c3.739-26.176,37.719-21.949,37.719-21.949v-.163Z"/>
    <path class="cls-28" d="M591.373,115.983h6.829l-5.69-8.454,5.203-6.666h-6.666l-4.552,6.341v-6.341h-6.016v15.12h6.016v-6.016c0-.325.488-.325.813-.163s.163.163.325.325l3.577,5.853h.162Z"/>
    <polygon class="cls-28" points="560.97 100.863 567.31 100.863 569.912 109.317 569.912 109.317 570.074 109.317 572.676 100.863 578.691 100.863 573.163 115.983 566.335 115.983 560.97 100.863"/>
    <path class="cls-28" d="M553.653,115.983h6.829l-5.69-8.454,5.203-6.666h-6.666l-4.552,6.341v-6.341h-6.016v15.12h6.016v-6.016c0-.325.488-.325.813-.163s.163.163.325.325l3.577,5.853h.162Z"/>
    <path class="cls-18" d="M751.029,384.733v-191.685l-.325-122.425c0-12.031-9.755-21.786-21.786-21.624l-190.385-.488c-12.194,0-22.111,9.918-22.111,22.274l1.138,396.54c0,11.056,9.105,19.998,20.16,19.998l83.73.325h89.746l6.829-13.82-22.911-.083-157.068-.568c-3.902,0-7.154-3.252-7.154-7.154l-.65-393.939c0-3.902,3.252-7.154,7.154-7.154l192.986.488c3.902,0,7.154,3.252,7.154,7.154l.488,299.153c0,2.114,4.227,5.365,5.853,6.666l7.641,6.666-.488-.325Z"/>
    <path class="cls-10" d="M580.104,296.803h-16.814c-1.044,0-1.896-.852-1.896-1.896v-16.814c0-1.044.852-1.896,1.896-1.896h16.814c1.044,0,1.896.852,1.896,1.896v16.814c0,1.044-.852,1.896-1.896,1.896Z"/>
    <path class="cls-26" d="M563.322,291.573v-4.877h1.385c1.63,0,2.526.824,2.526,2.294,0,1.758-.978,2.583-2.567,2.583h-1.344ZM564.205,290.832h.502c.964,0,1.603-.522,1.603-1.8,0-1.058-.625-1.607-1.67-1.607h-.435v3.407h0ZM568.414,286.367c.313,0,.489.206.489.481,0,.261-.176.481-.489.481s-.489-.192-.489-.481c.014-.247.176-.481.489-.481h0ZM568.836,291.573h-.829v-3.654l.829-.041s0,3.695,0,3.695ZM570.846,290.859h.869c.774,0,1.114.316,1.114.907,0,.701-.57,1.264-1.888,1.264-1.032,0-1.507-.371-1.507-.948,0-.343.19-.632.557-.797v-.027c-.163-.082-.285-.275-.285-.495,0-.234.136-.44.408-.549v-.027c-.326-.192-.516-.495-.516-.975,0-.893.598-1.374,1.507-1.374.204,0,.38.027.557.069h1.168v.563h-.557v.027c.15.124.285.371.285.687,0,.81-.543,1.236-1.535,1.236-.163,0-.312-.027-.462-.055-.095.055-.149.137-.149.234-.027.165.095.261.435.261ZM570.995,292.398c.788,0,1.073-.206,1.073-.495,0-.22-.136-.33-.489-.343l-1.209-.041c-.136.096-.204.22-.204.385.014.302.272.495.829.495h0ZM571.769,289.128c0-.44-.244-.687-.706-.687-.408,0-.706.234-.706.728,0,.481.258.673.693.673.448.014.72-.192.72-.714h0Z"/>
    <path class="cls-30" d="M573.779,286.367c.312,0,.489.206.489.481,0,.261-.176.481-.489.481s-.489-.192-.489-.481c.014-.247.176-.481.489-.481ZM574.201,291.573h-.829v-3.654l.829-.041s0,3.695,0,3.695ZM575.246,291.573v-4.877h1.385c1.63,0,2.526.824,2.526,2.294,0,1.758-.978,2.583-2.567,2.583h-1.344ZM576.129,290.832h.502c.964,0,1.603-.522,1.603-1.8,0-1.058-.625-1.607-1.67-1.607h-.435v3.407Z"/>
    <path class="cls-23" d="M714,268.25c.965,0,1.75.785,1.75,1.75v33c0,.965-.785,1.75-1.75,1.75h-161c-.965,0-1.75-.785-1.75-1.75v-33c0-.965.785-1.75,1.75-1.75h161M714,268h-161c-1.104,0-2,.895-2,2v33c0,1.105.896,2,2,2h161c1.104,0,2-.895,2-2v-33c0-1.105-.896-2-2-2h0Z"/>
    <g id="Icoon">
      <polygon class="cls-14" points="692.634 280.1 691.41 281.322 696.585 286.497 691.406 291.675 692.631 292.9 699.03 286.497 692.634 280.1"/>
    </g>
    <rect class="cls-7" height="8" width="66" x="593" y="282.5"/>
    <rect class="cls-26" height="30.401" rx="4.289" ry="4.289" width="30.401" x="556.497" y="322.775"/>
    <path class="cls-23" d="M714,319.726c.965,0,1.75.785,1.75,1.75v33c0,.965-.785,1.75-1.75,1.75h-161c-.965,0-1.75-.785-1.75-1.75v-33c0-.965.785-1.75,1.75-1.75h161M714,319.476h-161c-1.104,0-2,.895-2,2v33c0,1.105.896,2,2,2h161c1.104,0,2-.895,2-2v-33c0-1.105-.896-2-2-2h0Z"/>
    <g id="Icoon-2">
      <polygon class="cls-14" points="692.634 331.576 691.41 332.797 696.585 337.972 691.406 343.151 692.631 344.375 699.03 337.972 692.634 331.576"/>
    </g>
    <rect class="cls-7" height="8" width="88" x="593" y="333.976"/>
    <rect class="cls-2" height="13" width="104" x="551" y="167"/>
    <rect class="cls-7" height="9.506" width="106.156" x="551" y="208.165"/>
    <rect class="cls-7" height="9.506" width="115.662" x="551" y="191"/>
    <rect class="cls-7" height="9.506" width="92.688" x="551" y="242.494"/>
    <rect class="cls-7" height="9.506" width="110.909" x="551" y="225.329"/>
    <path class="cls-23" d="M725,149.25c.965,0,1.75.785,1.75,1.75v245c0,.965-.785,1.75-1.75,1.75h-182c-.965,0-1.75-.785-1.75-1.75v-245c0-.965.785-1.75,1.75-1.75h182M725,149h-182c-1.104,0-2,.895-2,2v245c0,1.105.896,2,2,2h182c1.104,0,2-.895,2-2v-245c0-1.105-.896-2-2-2h0Z"/>
    <g id="Icoon-3">
      <polygon class="cls-17" points="556.537 369.66 555.802 370.393 558.907 373.498 555.8 376.605 556.535 377.34 560.374 373.498 556.537 369.66"/>
    </g>
    <rect class="cls-17" height="6.5" width="92.7" x="566.3" y="369"/>
    <rect class="cls-17" height="1" width="92.7" x="566.3" y="377"/>
    <path class="cls-22" d="M733.308,382.782c-14.958-8.617-20.648-16.421-32.517-28.615l-61.619-57.717s-51.376,51.539,0,93.648l24.225,17.722,27.639,28.127,7.641,27.151s-3.283,4.733-3.564,10.648l22.911.083,15.608-91.047h-.325Z"/>
    <path class="cls-29" d="M788.748,205.729l-38.207-12.844v71.211l26.664,60.481-26.501-13.982v64.383c-14.795-8.617-20.485-16.421-32.517-28.615l-79.341-49.75s-33.655,43.735,17.559,85.681l24.225,17.722,27.639,28.127,7.641,27.151s-6.178,11.218-5.04,32.029l-89.421.325,69.748,44.223,17.071,8.129h210.545l-51.214-201.278-78.853-132.83v-.163Z"/>
    <path class="cls-25" d="M803.056,318.237l-25.2-42.922-27.314-82.267v71.211l26.664,60.481-26.501-13.982v64.383l33.655,27.314s13.007-55.603,41.459-54.303c0,0-22.924-3.414-38.207,6.341l15.12-36.093.325-.163Z"/>
    <path class="cls-25" d="M733.633,427.005l-5.69-23.412-30.728-6.341-36.419-24.062c-32.842-28.777-21.786-76.739-21.786-76.739,0,0-35.606,42.759,17.559,85.681l24.225,17.722,27.639,28.127,5.528,19.673c-4.715,13.169-5.528,26.501-3.739,39.508l-88.77.488,31.541,19.835,38.37,24.225s1.463,3.089,4.065,8.129h48.45c-29.915-67.96-10.08-112.833-10.08-112.833h-.162Z"/>
    <path class="cls-11" d="M334.172,178.232l-.376-6.4-3.024-1.847s1.539-7.178-4.553-21.353c0,0,31.955,5.177,32.287,15.934.102,3.307.46,6.44.46,6.44l.488,4.915.082.829.115,1.162-2.515,12.556-8.604,8.425-14.361-20.66Z"/>
    <path class="cls-6" d="M334.925,177.385c5.72,6.356,21.271,14.212,21.271,14.212-2.071,3.388-7.662,7.295-7.662,7.295l-2.214-1.571c-8.547-6.065-14.271-15.335-15.866-25.693h0s.319-1.642.319-1.642c0,0,1.539-7.178-4.553-21.353,0,0,31.955,5.177,32.287,15.934.102,3.307.46,6.44.46,6.44,0,0-9.782,7.12-24.276,2.183l.235,4.197Z"/>
    <path class="cls-11" d="M373.159,140.444c.568-7.322-4.885-4.885-4.885-4.885,0,0,.431-25.912-21.984-25.912-23.093,0-21.984,25.912-21.984,25.912,0,0-1.192-.669-2.405-.591-1.405.09-2.838,1.183-2.481,5.476.775,9.313,4.885,7.328,4.885,7.328,7.318,21.736,13.164,23.54,22.855,23.54,9.383,0,14.821-.577,21.113-23.54,0,0,4.111,2.663,4.885-7.328Z"/>
    <path class="cls-6" d="M347.16,171.312c-9.691,0-15.72-.019-22.855-23.54,0,0-4.111,1.985-4.885-7.328-.357-4.294,1.076-5.386,2.481-5.476,1.213-.078,2.405.591,2.405.591,0,0-1.109-25.912,21.984-25.912,22.415,0,20.598,18.976,20.598,18.976l-2.044,1.738.307-7.564s-10.528-10.324-25.247-6.44l-7.973,5.315.613,9.404-1.227,13.492s2.658,2.453,8.79,2.453l5.724-13.901-2.095,15,4.906,1.15,2.913-1.022-3.066,2.453-5.724-1.022s-5.315,3.066-9.404,8.995c0,0,.78,7.163,6.288,10.13,5.509,2.966,7.51,2.509,7.51,2.509Z"/>
    <path class="cls-5" d="M327.273,140.987s-.044-7.152,2.205-10.627l.307-10.324,8.511-4.838v-1.582l1.266.949s16.084-3.421,25.59,8.231l-.307,7.564s1.738,2.453,1.139,10.627l1.723.105s-.341-1.688.568-5.534c0,0,3.419-8.776,1.681-18.487l-1.282-1.083.475-3.323s-8.385-9.651-19.777-11.233c0,0-9.335.475-14.239,4.114v2.531l-3.006-1.266s-8.064,3.002-12.357,12.713c.01,8.447,2.134,15.443,2.134,15.443,0,0,3.795-.826,4.211,6.019h1.16Z"/>
    <path class="cls-5" d="M340.974,119.173s-.795,2.225-2.86,3.655c0,0-2.86.636-4.926-.477,0,0,2.384,3.814,2.701,6.833,0,0-2.701,5.085-6.833,6.674,0,0,.636,1.589.636,3.019,0,0-1.748,4.131-8.74,4.131,0,0-1.748-1.43-2.384-3.496,0,0-3.973.795-6.515-1.748,0,0-1.112-4.767.953-8.581,0,0-5.562-2.225-7.309-5.085,0,0,.636-6.992,2.542-9.375,0,0,6.197-2.225,8.422-1.43,0,0-3.496-2.225-3.814-3.655,0,0,0-6.833,3.973-9.057,0,0,4.449-1.271,8.263.318,0,0,2.384-3.496,7.945-4.926,0,0,5.244,1.271,6.992,3.973,0,0,6.833-2.86,12.712.636,0,0,2.066,4.29,1.271,8.263,0,0-3.019,2.86-7.945,3.019,0,0,1.43.795,3.019,1.907,0,0-1.43,4.131-3.814,5.879,0,0-2.225.318-4.29-.477Z"/>
    <path class="cls-18" d="M362.262,456.505l4.931-.435,11.747-.145,7.686,10.007,14.067,27.99-2.32,4.351s-21.464-1.45-30.31-6.961c0,0-.145-4.786-2.32-6.816l-1.16,2.175-12.617-7.686.725-6.816h1.16s2.61-12.762,8.411-15.663Z"/>
    <path class="cls-18" d="M401.419,497.74s1.354,5.028,4.157,8.605c2.804,3.577,6.865,4.834,12.956,1.547,0,0,11.215-6.284,13.246-12.085,0,0,2.127-7.058-6.478-12.182l-23.881,14.116Z"/>
    <path class="cls-18" d="M387.242,469.579s3.041-10.811,13.851-10.135l.713.976,1.644-.677,16.436,17.016.097.87,8.895,9.088s4.061,3.577-.87,9.668c-4.931,6.091-18.08,16.146-25.041,4.931,0,0-3.384-5.994-5.028-10.732h-.677l-9.862-19.24.483-.773-.642-.993Z"/>
    <polygon class="cls-18" points="376.475 454.039 379.665 463.321 387.883 470.572 401.806 460.42 399.099 450.849 392.717 444.178 376.475 454.039"/>
    <path class="cls-19" d="M330.453,171.627s7.928,19.433,18.08,27.265c0,0,8.296-9.284,11.003-22.143l-.082-.829,2.918,3.445-.013.577,15.759,109.445-23.494,7.541-44.958-1.16,17.403-120.274-.144-1.31,3.847-4.2-.319,1.642Z"/>
    <polygon class="cls-8" points="347.663 200.487 341.572 198.747 336.641 204.693 340.992 195.412 348.533 198.892 358.685 194.831 360.812 201.986 358.298 197.152 349.79 200.439 354.818 254.582 362.939 254.582 376.088 292.481 318.465 297.509 323.492 254.968 351.724 254.968 347.663 200.487"/>
    <path class="cls-13" d="M362.359,179.942s-2.514,60.137-1.064,85.081l11.022,25.234,6.961,10.152,16.823,10.152-4.061-10.152,8.121-1.45s7.541-7.831,6.671-17.983c0,0-8.121-69.032-14.793-79.184,0,0-16.049-9.088-29.682-21.85Z"/>
    <path class="cls-20" d="M406.833,280.976s-4.423-37.128-9.421-60.91h-4.212c1.16-7.831-1.16-18.273-1.16-18.273,0,0,1.74,12.182-1.45,18.273h-13.342l-9.282,31.035c-.29-4.931,3.191-48.438,3.191-48.438-4.931,17.113-7.251,58.01-7.251,58.01l-2.611,4.351,11.022,25.234,6.961,10.152,16.823,10.152-4.061-10.152,8.122-1.45s7.541-7.831,6.671-17.983Z"/>
    <path class="cls-13" d="M289.46,189.224l11.795-1.644,17.983-6.961,7.831-5.124s.773,8.411,5.221,19.627c4.447,11.215,8.411,41.477,8.121,65.261,0,0-4.971,17.605-16.312,34.087l-3.701,12.611-18.853,13.052-5.221,27.555h-14.793l-3.191-20.884,10.442-42.347.677-95.233Z"/>
    <path class="cls-20" d="M303.769,225.577l-14.309-36.353s18.176,19.24,17.596,38.093l-2.61,26.975,22.334.87,2.32,2.32,4.351-.87s-4.061-24.654-8.992-40.317l-9.282-21.174s21.174,37.126,25.234,65.261c0,0-3.91,19.157-16.312,34.087l-4.861-3.922c-21.464,2.03-32.196,1.16-32.196,1.16l1.74-7.251,14.986-58.88Z"/>
    <path class="cls-11" d="M341.282,271.598s6.574,1.16,12.762-2.32l5.414.773,6.188,5.028s1.45,1.547,4.061.242l-5.656-6.961,3.046.29,5.656,2.32s2.175,2.175,5.511.435l-3.481-3.771-4.931-2.9,5.656.29s4.641,1.45,6.526-1.305l-7.396-3.046s-6.236-1.015-13.632-3.481c0,0-8.992,1.595-16.678,1.16l-6.961.725,3.916,12.52Z"/>
    <path class="cls-18" d="M365.066,277.496l20.734-.958,2.612-.121,17.123-.791,3.039-.14,24.203-1.119c.792-.037,1.477-.566,1.712-1.323l15.003-48.282c.277-.891-.389-1.795-1.322-1.795h-67.22c-.823,0-1.55.534-1.797,1.319l-15.828,50.31-29.585,1.16v1.988c0,.655.547,1.177,1.201,1.147l30.124-1.395Z"/>
    <path class="cls-11" d="M377.828,274.112l6.526,7.88,2.9,4.931s9.282,1.885,16.243-.58l3.481-2.755,4.206-1.45,5.656-6.816-6.671-7.106s-3.771,1.885-1.885,6.091l.291,1.18-3.039.14.428-4.801-.145-11.022s.435-3.046-2.03-3.046-2.32,2.755-2.32,2.755l-.58,9.137h-.58l-.87-8.194s-.362-1.581-2.175-1.523c-2.248.073-2.175,1.958-2.175,1.958l-.218,8.266-.508.073-.435-5.874s-.363-1.378-2.393-1.088c-2.03.29-2.03,1.74-2.03,1.74l-1.091,12.408-2.612.121-3.138-1.845s-1.789-3.481-4.834-.58Z"/>
    <polygon class="cls-19" points="337.366 259.077 341.282 271.598 342.007 274.088 330.453 276.625 326.507 260.181 337.366 259.077"/>
    <path class="cls-13" d="M325.813,257.289l.694,2.892,3.947,16.444,1.16,4.641s-30.165,8.508-60.717,6.574c0,0-6.574-8.121-7.735-15.856l3.867-7.348s5.801-55.303,22.431-75.413c0,0,14.309,17.016,14.309,36.353l-5.414,33.259,27.458-1.547Z"/>
    <path class="cls-20" d="M275.924,260.383s5.801-3.867,18.563-3.094l9.282-31.712-1.446,21.965-3.968,11.294s-6.188,2.32-10.055,7.348l.387-5.801s-4.641-1.16-12.762,0Z"/>
    <path class="cls-28" d="M437.579,350.588s-16.823-25.524-41.477-40.027l-16.823-10.152-6.961-10.152s-12.321,3.784-48.218,4.212l-3.701,12.61-18.853,13.052-5.221,27.555,23.204,15.663,46.988,99.197,26.328-13.287,6.738,2.265s34.806-72.512,37.997-100.937ZM354.334,347.978h19.723l23.204,10.732-3.77,8.122-15.672,41.737c-7.317-15.335-14.588-32.256-17.684-44.638l-5.801-15.953Z"/>
    <path class="cls-15" d="M354.334,347.978l-4.931-18.37s-14.696-12.375-24.751-14.696l34.613,8.121s14.889-9.668,38.867-5.028c0,0-17.016,2.32-23.204,9.282l30.165,17.016-1.547,15.469,13.149-1.547-13.149,8.508,8.508.773-24.751,39.447,12.375,25.524s30.165-46.214,37.9-81.891c0,0-7.155,40.316-37.997,100.937l-6.738-2.265,3.354-1.699-18.379-38.993,15.672-41.737,3.77-8.122-23.204-10.732h-19.723Z"/>
    <path class="cls-6" d="M400.307,268.649h.58l-.145,2.175.58,6.236,2.175,1.305,2.038-2.741,3.039-.14-2.756,2.881s1.595,3.336,5.366,3.771l-4.206,1.45-3.481,2.755s-6.526,2.755-16.243.58l-2.9-4.931-3.626-5.801,1.934-1.499,3.138,1.845,2.612-.121,1.091-12.408-.363,14.502,2.03,1.45,2.61-1.015.58-6.526v-3.191l.508-.073.121,3.166.918,5.366,2.514,1.837,2.175-2.32-.193-6.381-.097-2.175Z"/>
    <path class="cls-15" d="M376.861,302.536l19.24,8.025-16.823-10.152-6.961-10.152s-18.122,4.509-48.218,4.212l-3.701,12.61-18.853,13.052-5.221,27.555,23.204,15.663,46.988,99.197-28.135-85.565-11.022-10.442,4.061-16.823-9.862,9.861-14.502-14.503-.58-20.883,17.983-15.663-.144-5.624,47.519-7.719,1.16,3.094-15.082,11.989s12.762-8.121,18.95-7.735Z"/>
    <path class="cls-6" d="M337.366,259.077l3.916,12.52s8.411,1.354,12.762-2.32c0,0-6.381,1.547-9.862-.483l-3.771-8.411,3.916-2.03-6.961.725Z"/>
    <path class="cls-26" d="M572.538,325.641c-2.192,0-3.937,1.663-4.059,3.869-.192,3.474,1.935,5.213,4.061,5.213s4.249-1.736,4.057-5.212c-.121-2.206-1.866-3.869-4.059-3.869h0Z"/>
    <path class="cls-27" d="M572.538,326.64s-1.796.898-1.796,3.592,1.798,3.48,1.798,3.48c0,0-3.594.562-3.594-3.622,0-3.899,3.592-3.45,3.592-3.45Z"/>
    <path class="cls-2" d="M572.538,326.64c1.631,0,2.929,1.241,3.02,2.888.078,1.407-.258,2.549-.97,3.302-.538.569-1.266.882-2.048.882s-1.512-.314-2.051-.884c-.713-.753-1.049-1.894-.971-3.3.091-1.646,1.389-2.888,3.02-2.888M572.538,325.293c-2.357,0-4.234,1.789-4.365,4.16-.206,3.736,2.081,5.606,4.367,5.606s4.569-1.867,4.363-5.605c-.131-2.372-2.007-4.161-4.365-4.161h0Z"/>
    <rect class="cls-26" height="7.184" width="22.451" x="561.312" y="342.805"/>
    <rect class="cls-27" height="7.184" width="3.592" x="561.537" y="342.805"/>
    <rect class="cls-1" height="2.694" width="1.796" x="563.782" y="345.05"/>
    <path class="cls-2" d="M582.192,343.254c.495,0,.898.403.898.898v4.49c0,.495-.403.898-.898.898h-19.308c-.495,0-.898-.403-.898-.898v-4.49c0-.495.403-.898.898-.898h19.308M582.192,341.907h-19.308c-1.24,0-2.245,1.005-2.245,2.245v4.49c0,1.24,1.005,2.245,2.245,2.245h19.308c1.24,0,2.245-1.005,2.245-2.245v-4.49c0-1.24-1.005-2.245-2.245-2.245h0Z"/>
    <rect class="cls-1" height="2.694" width="1.796" x="566.027" y="345.05"/>
    <rect class="cls-1" height="2.694" width="1.796" x="568.272" y="345.05"/>
    <rect class="cls-1" height="2.694" width="1.796" x="570.517" y="345.05"/>
    <rect class="cls-1" height="2.694" width="1.796" x="572.762" y="345.05"/>
    <rect class="cls-27" height="2.694" width="1.796" x="575.007" y="345.05"/>
    <rect class="cls-27" height="2.694" width="1.796" x="577.253" y="345.05"/>
    <rect class="cls-27" height="2.694" width="1.796" x="579.498" y="345.05"/>
    <path class="cls-27" d="M572.538,337.416v-.449h-3.143c-2.232,0-4.041,1.809-4.041,4.041h0s2.694,0,2.694,0c.898-3.592,4.49-3.592,4.49-3.592Z"/>
    <path class="cls-2" d="M572.543,336.07c-4.743,0-7.549,1.75-7.92,4.939h1.365c.459-2.956,3.794-3.592,6.555-3.592,4.968,0,6.188,1.833,6.545,3.592h1.365c-.364-2.127-1.733-4.939-7.91-4.939Z"/>
  </g>
</svg>
