<svg width="32" height="32" viewBox="0 0 32 32" xmlns="http://www.w3.org/2000/svg"><path d="M13.433 8.485a.543.543 0 0 1-.6 0L5.638 3.699h14.987l-7.193 4.786Zm18.141 15.222c-.005-.075-.008-.15-.022-.224a1.85 1.85 0 0 0-.09-.305c-.005-.012-.007-.023-.01-.034a1.867 1.867 0 0 0-.442-.647l-6.286-6.285a1.85 1.85 0 0 0-2.617 2.617l3.157 3.157H4.242a.543.543 0 0 1-.542-.542V6.852l7.083 4.713a4.225 4.225 0 0 0 4.7 0l7.082-4.713v2.62a1.85 1.85 0 0 0 3.701 0V4.241A4.247 4.247 0 0 0 22.023 0H4.243A4.246 4.246 0 0 0 0 4.241v17.203a4.246 4.246 0 0 0 4.242 4.241H25.28l-3.158 3.158a1.85 1.85 0 1 0 2.617 2.615l6.307-6.308a1.842 1.842 0 0 0 .542-1.312c0-.047-.009-.088-.013-.131Z" fill="#282828" fill-rule="evenodd"/></svg>