<svg width="32" height="32" viewBox="0 0 32 32" xmlns="http://www.w3.org/2000/svg" xmlns:xlink="http://www.w3.org/1999/xlink"><defs><path d="M16 11a2 2 0 1 1 0-4 2 2 0 0 1 0 4Zm0 3a2 2 0 0 1 2 2v8a2 2 0 1 1-4 0v-8a2 2 0 0 1 2-2Z" id="a"/></defs><g fill="none" fill-rule="evenodd"><path d="M31.1 3.455A3.33 3.33 0 0 0 28.337.691C24.189 0 17.278 0 15.896 0c-1.383 0-8.293 0-12.44.691A3.33 3.33 0 0 0 .691 3.455C0 7.602 0 14.513 0 15.895c0 1.383 0 8.294.691 12.441A3.33 3.33 0 0 0 3.456 31.1c4.147.691 11.057.691 12.44.691 1.382 0 8.293 0 12.44-.691a3.33 3.33 0 0 0 2.765-2.764c.69-4.147.69-11.058.69-12.44 0-4.15 0-8.294-.69-12.44Z" fill="#282828"/><use fill="#FFF" fill-rule="nonzero" xlink:href="#a"/></g></svg>