<svg width="24" height="24" viewBox="0 0 24 24" xmlns="http://www.w3.org/2000/svg"><path d="m5.467 11.262-4.287 9.05h5.115l.508-2.754h2.246v2.754h5.115l-2.62-9.05H5.468ZM18.689 3c1.137 0 2.122.644 2.615 1.587 2.816.24 3.722 3.958 1.284 5.453.39.5.626 1.128.626 1.813a2.95 2.95 0 0 1-2.951 2.95c-.148 0-.293-.014-.435-.035l.234 4.757s-.38.787-1.57.787c-1.189 0-1.963-.787-1.963-.787.014-.34.513-4.603.574-5.5.059-.867-.152-2.279-.727-2.752-.04.009-.092.068-.026.231.049.124.38.903.068 2.437l-.168.821c-2.066-.333-3.07-2.549-2.04-4.453-2.304-1.665-1.149-5.316 1.7-5.34A2.95 2.95 0 0 1 18.688 3Zm-9.64 9.836v1.968H7.31l.363-1.968H9.05Zm2.882-4.721c.036.722.26 1.394.63 1.967H2.263c-.008.022-.026.103.099.143l1.572.313v1.433l-.787 1.259H1.18v-3.148H0V8.115ZM9.836 5.36l.57 1.967H7.33l.931-1.967h1.574Z" fill="#CA005D"/></svg>