<svg xmlns="http://www.w3.org/2000/svg" viewBox="0 0 60 48"><path fill="#1d336a" d="M29.82 36.19C36.59 36.19 42.08 30.69 42.08 23.91C42.08 17.13 36.59 11.63 29.82 11.63C23.04 11.63 17.55 17.13 17.55 23.91C17.55 30.69 23.04 36.19 29.82 36.19Z"/><g fill="#f1cc49"><path d="M38.78 27.97C38.78 27.92 38.76 27.88 38.73 27.84C38.69 27.81 38.65 27.79 38.6 27.79H37.75L37.46 26.93C37.45 26.89 37.43 26.86 37.4 26.83C37.36 26.81 37.32 26.8 37.28 26.8C37.24 26.8 37.2 26.82 37.17 26.84C37.14 26.87 37.12 26.9 37.11 26.94L36.83 27.79H35.99C35.95 27.79 35.91 27.8 35.88 27.82C35.85 27.84 35.83 27.87 35.81 27.91C35.8 27.94 35.8 27.98 35.81 28.02C35.82 28.05 35.84 28.09 35.87 28.11L36.58 28.66L36.32 29.52C36.3 29.54 36.3 29.57 36.3 29.59C36.3 29.62 36.3 29.64 36.31 29.66C36.32 29.69 36.34 29.71 36.35 29.72C36.37 29.74 36.39 29.75 36.41 29.76C36.44 29.77 36.46 29.78 36.48 29.78C36.52 29.78 36.56 29.76 36.59 29.74L37.29 29.21L37.96 29.72C37.99 29.75 38.02 29.77 38.05 29.77C38.09 29.78 38.13 29.78 38.16 29.76C38.2 29.75 38.22 29.72 38.24 29.69C38.27 29.66 38.28 29.63 38.28 29.59C38.28 29.57 38.27 29.55 38.26 29.53L38 28.67L38.7 28.12C38.73 28.1 38.74 28.08 38.76 28.05C38.77 28.03 38.78 28 38.78 27.97Z"/><path d="M39.97 23.54C39.97 23.5 39.96 23.45 39.92 23.42C39.89 23.38 39.84 23.36 39.8 23.36H38.95L38.66 22.5C38.65 22.46 38.62 22.43 38.59 22.41C38.56 22.38 38.52 22.37 38.48 22.37C38.44 22.37 38.4 22.39 38.37 22.41C38.34 22.44 38.31 22.48 38.3 22.52L38.02 23.36H37.18C37.16 23.36 37.13 23.36 37.11 23.37C37.09 23.38 37.07 23.4 37.05 23.41C37.03 23.43 37.02 23.45 37.01 23.47C37 23.5 37 23.52 37 23.54C37 23.57 37 23.6 37.02 23.62C37.03 23.64 37.04 23.67 37.06 23.68L37.78 24.23L37.51 25.09C37.5 25.11 37.5 25.14 37.5 25.16C37.5 25.2 37.51 25.23 37.52 25.26C37.54 25.29 37.57 25.31 37.6 25.33C37.63 25.34 37.66 25.35 37.7 25.35C37.73 25.34 37.77 25.33 37.79 25.31L38.49 24.78L39.16 25.29C39.19 25.32 39.22 25.34 39.25 25.34C39.29 25.35 39.33 25.35 39.36 25.33C39.4 25.32 39.42 25.3 39.45 25.27C39.47 25.24 39.48 25.2 39.48 25.16C39.48 25.14 39.47 25.12 39.46 25.1L39.19 24.24L39.9 23.69C39.92 23.67 39.94 23.65 39.95 23.63C39.97 23.6 39.97 23.57 39.97 23.54Z"/><path d="M38.78 19.25C38.78 19.2 38.76 19.16 38.73 19.12C38.69 19.09 38.65 19.07 38.6 19.07H37.75L37.46 18.21C37.45 18.17 37.43 18.13 37.4 18.11C37.36 18.09 37.32 18.08 37.28 18.08C37.24 18.08 37.2 18.09 37.17 18.12C37.14 18.15 37.12 18.18 37.11 18.22L36.83 19.06H35.99C35.95 19.07 35.91 19.08 35.88 19.1C35.85 19.12 35.83 19.15 35.82 19.19C35.8 19.22 35.8 19.26 35.81 19.3C35.82 19.33 35.84 19.36 35.87 19.39L36.59 19.94L36.32 20.79C36.31 20.82 36.3 20.84 36.3 20.87C36.3 20.89 36.31 20.92 36.32 20.94C36.32 20.96 36.34 20.98 36.36 21C36.37 21.02 36.39 21.03 36.42 21.04C36.44 21.05 36.46 21.05 36.49 21.05C36.53 21.05 36.57 21.04 36.6 21.02L37.29 20.48L37.96 21C37.98 21.02 38 21.03 38.02 21.04C38.05 21.05 38.07 21.05 38.09 21.05C38.12 21.05 38.14 21.05 38.17 21.04C38.19 21.03 38.21 21.02 38.23 21C38.24 20.98 38.26 20.96 38.27 20.94C38.27 20.92 38.28 20.89 38.28 20.87C38.28 20.85 38.28 20.83 38.27 20.81L38 19.94L38.7 19.4C38.73 19.38 38.74 19.36 38.76 19.33C38.77 19.31 38.78 19.28 38.78 19.25Z"/><path d="M35.6 16.06C35.6 16.01 35.58 15.97 35.54 15.93C35.51 15.9 35.47 15.88 35.42 15.88H34.57L34.28 15.02C34.27 14.98 34.24 14.95 34.21 14.92C34.18 14.9 34.14 14.89 34.1 14.89C34.06 14.89 34.02 14.91 33.99 14.93C33.96 14.96 33.94 14.99 33.93 15.03L33.64 15.88H32.8C32.76 15.88 32.73 15.89 32.7 15.91C32.67 15.93 32.64 15.96 32.63 16C32.62 16.03 32.61 16.07 32.62 16.11C32.63 16.15 32.65 16.18 32.68 16.2L33.4 16.75L33.13 17.6C33.12 17.63 33.12 17.65 33.12 17.68C33.12 17.71 33.12 17.73 33.13 17.75C33.14 17.77 33.15 17.8 33.17 17.81C33.19 17.83 33.21 17.84 33.23 17.85C33.25 17.86 33.28 17.87 33.3 17.87C33.34 17.87 33.38 17.85 33.41 17.83L34.11 17.3L34.78 17.82C34.8 17.84 34.84 17.86 34.87 17.87C34.91 17.87 34.95 17.87 34.98 17.86C35.01 17.84 35.04 17.82 35.06 17.79C35.08 17.76 35.09 17.72 35.09 17.69C35.09 17.66 35.09 17.64 35.08 17.62L34.81 16.76L35.52 16.21C35.54 16.19 35.56 16.17 35.57 16.15C35.59 16.12 35.59 16.09 35.6 16.06Z"/><path d="M31.25 14.92C31.25 14.87 31.24 14.83 31.2 14.79C31.17 14.76 31.13 14.74 31.08 14.74H30.23L29.94 13.88C29.93 13.84 29.9 13.81 29.87 13.78C29.84 13.76 29.8 13.75 29.76 13.75C29.72 13.75 29.68 13.76 29.65 13.79C29.62 13.82 29.6 13.85 29.59 13.89L29.3 14.74H28.46C28.43 14.74 28.39 14.75 28.36 14.77C28.33 14.79 28.3 14.82 28.29 14.86C28.28 14.89 28.28 14.93 28.28 14.97C28.29 15 28.31 15.04 28.34 15.06L29.06 15.61L28.79 16.46C28.78 16.49 28.78 16.51 28.78 16.54C28.78 16.58 28.79 16.61 28.8 16.64C28.82 16.67 28.85 16.69 28.88 16.71C28.91 16.72 28.94 16.73 28.98 16.73C29.01 16.72 29.04 16.71 29.07 16.69L29.77 16.16L30.44 16.67C30.46 16.7 30.5 16.72 30.53 16.72C30.57 16.73 30.6 16.73 30.64 16.71C30.67 16.7 30.7 16.68 30.72 16.65C30.74 16.62 30.75 16.58 30.75 16.54C30.75 16.52 30.75 16.5 30.74 16.48L30.47 15.61L31.18 15.07C31.2 15.05 31.22 15.03 31.23 15C31.25 14.98 31.25 14.95 31.25 14.92Z"/><path d="M26.88 16.07C26.88 16.02 26.86 15.98 26.83 15.94C26.8 15.91 26.75 15.89 26.7 15.89H25.85L25.57 15.03C25.55 14.99 25.53 14.96 25.5 14.94C25.46 14.91 25.42 14.9 25.38 14.9C25.34 14.9 25.31 14.92 25.27 14.94C25.24 14.97 25.22 15.01 25.21 15.04L24.93 15.89H24.09C24.05 15.89 24.01 15.9 23.98 15.92C23.95 15.94 23.93 15.97 23.91 16.01C23.9 16.05 23.9 16.08 23.91 16.12C23.92 16.16 23.94 16.19 23.97 16.21L24.68 16.76L24.42 17.62C24.41 17.64 24.4 17.67 24.4 17.7C24.4 17.73 24.41 17.76 24.43 17.79C24.45 17.82 24.47 17.85 24.5 17.86C24.53 17.88 24.57 17.88 24.6 17.88C24.64 17.88 24.67 17.86 24.7 17.84L25.39 17.31L26.06 17.82C26.08 17.84 26.1 17.86 26.12 17.87C26.14 17.87 26.17 17.88 26.19 17.88C26.22 17.88 26.24 17.87 26.26 17.87C26.29 17.86 26.31 17.84 26.32 17.83C26.34 17.81 26.35 17.79 26.36 17.77C26.37 17.74 26.38 17.72 26.38 17.7C26.38 17.67 26.37 17.65 26.37 17.63L26.1 16.77L26.8 16.22C26.83 16.2 26.85 16.18 26.86 16.16C26.87 16.13 26.88 16.1 26.88 16.07Z"/><path d="M23.78 19.26C23.78 19.21 23.77 19.17 23.73 19.13C23.7 19.1 23.66 19.08 23.61 19.08H22.76L22.47 18.22C22.46 18.18 22.43 18.15 22.4 18.12C22.37 18.1 22.33 18.09 22.29 18.09C22.25 18.09 22.21 18.11 22.18 18.13C22.15 18.16 22.12 18.19 22.12 18.23L21.83 19.08H20.99C20.95 19.08 20.92 19.09 20.89 19.11C20.86 19.13 20.83 19.16 20.82 19.2C20.81 19.23 20.8 19.27 20.81 19.31C20.82 19.34 20.84 19.38 20.87 19.4L21.59 19.95L21.32 20.8C21.31 20.83 21.3 20.85 21.3 20.88C21.3 20.91 21.31 20.93 21.32 20.95C21.33 20.97 21.34 20.99 21.36 21.01C21.38 21.03 21.4 21.04 21.42 21.05C21.44 21.06 21.46 21.07 21.49 21.07C21.53 21.07 21.57 21.05 21.6 21.03L22.29 20.49L22.97 21.01C22.99 21.04 23.02 21.05 23.06 21.06C23.1 21.07 23.13 21.06 23.17 21.05C23.2 21.04 23.23 21.01 23.25 20.98C23.27 20.95 23.28 20.92 23.28 20.88C23.28 20.86 23.28 20.84 23.27 20.82L23 19.95L23.71 19.41C23.73 19.39 23.75 19.37 23.76 19.34C23.78 19.32 23.78 19.29 23.78 19.26Z"/><path d="M22.63 23.55C22.63 23.5 22.61 23.46 22.58 23.43C22.55 23.39 22.5 23.37 22.46 23.37H21.6L21.32 22.51C21.31 22.47 21.28 22.44 21.25 22.42C21.22 22.39 21.18 22.38 21.14 22.38C21.1 22.38 21.06 22.4 21.03 22.42C21 22.45 20.97 22.48 20.96 22.52L20.68 23.37H19.84C19.8 23.37 19.77 23.38 19.74 23.4C19.71 23.42 19.68 23.45 19.67 23.49C19.66 23.52 19.65 23.56 19.66 23.6C19.67 23.64 19.69 23.67 19.72 23.69L20.44 24.24L20.17 25.1C20.16 25.12 20.16 25.15 20.16 25.17C20.16 25.2 20.16 25.22 20.17 25.25C20.18 25.27 20.19 25.29 20.21 25.31C20.23 25.32 20.25 25.34 20.27 25.35C20.29 25.35 20.32 25.36 20.34 25.36C20.38 25.36 20.42 25.35 20.45 25.32L21.15 24.79L21.82 25.31C21.84 25.33 21.88 25.35 21.91 25.36C21.95 25.36 21.99 25.36 22.02 25.35C22.05 25.33 22.08 25.31 22.1 25.28C22.12 25.25 22.13 25.21 22.13 25.18C22.13 25.15 22.13 25.13 22.12 25.11L21.85 24.25L22.56 23.7C22.58 23.68 22.6 23.66 22.61 23.64C22.63 23.61 22.63 23.58 22.63 23.55Z"/><path d="M23.78 27.98C23.78 27.94 23.77 27.89 23.73 27.86C23.7 27.82 23.66 27.8 23.61 27.8H22.76L22.47 26.94C22.46 26.9 22.43 26.87 22.4 26.85C22.37 26.82 22.33 26.81 22.29 26.81C22.25 26.81 22.21 26.83 22.18 26.85C22.15 26.88 22.12 26.91 22.12 26.95L21.83 27.8H20.99C20.95 27.8 20.92 27.81 20.89 27.83C20.86 27.85 20.83 27.88 20.82 27.92C20.81 27.95 20.8 27.99 20.81 28.03C20.82 28.07 20.84 28.1 20.87 28.12L21.59 28.67L21.32 29.53C21.31 29.55 21.3 29.58 21.3 29.61C21.3 29.63 21.31 29.66 21.32 29.68C21.33 29.7 21.34 29.72 21.36 29.74C21.38 29.76 21.4 29.77 21.42 29.78C21.44 29.79 21.46 29.79 21.49 29.79C21.53 29.79 21.57 29.78 21.6 29.75L22.29 29.22L22.97 29.74C22.99 29.76 23.02 29.78 23.06 29.79C23.1 29.8 23.13 29.79 23.17 29.78C23.2 29.76 23.23 29.74 23.25 29.71C23.27 29.68 23.28 29.64 23.28 29.61C23.28 29.59 23.28 29.56 23.27 29.54L23 28.68L23.71 28.13C23.73 28.11 23.75 28.09 23.76 28.07C23.78 28.04 23.78 28.01 23.78 27.98Z"/><path d="M26.93 31.13C26.93 31.08 26.91 31.03 26.87 31C26.84 30.96 26.8 30.94 26.75 30.94H25.9L25.61 30.08C25.6 30.04 25.57 30.01 25.54 29.98C25.51 29.96 25.47 29.95 25.43 29.95C25.39 29.95 25.35 29.97 25.32 29.99C25.29 30.02 25.27 30.05 25.26 30.09L24.98 30.94H24.13C24.08 30.94 24.04 30.96 24 30.99C23.97 31.03 23.95 31.07 23.95 31.12C23.95 31.15 23.95 31.18 23.97 31.2C23.98 31.22 23.99 31.24 24.01 31.26L24.73 31.81L24.46 32.67C24.45 32.69 24.45 32.72 24.45 32.74C24.45 32.78 24.46 32.81 24.47 32.84C24.49 32.87 24.52 32.89 24.55 32.91C24.58 32.92 24.61 32.93 24.65 32.93C24.68 32.92 24.71 32.91 24.74 32.89L25.44 32.36L26.11 32.87C26.13 32.9 26.17 32.92 26.2 32.92C26.24 32.93 26.28 32.93 26.31 32.91C26.34 32.9 26.37 32.88 26.39 32.85C26.41 32.81 26.42 32.78 26.42 32.74C26.42 32.72 26.42 32.7 26.41 32.68L26.14 31.81L26.85 31.27C26.87 31.25 26.89 31.23 26.9 31.2C26.92 31.18 26.92 31.15 26.93 31.13Z"/><path d="M31.3 32.27C31.3 32.22 31.28 32.17 31.25 32.14C31.22 32.1 31.17 32.08 31.13 32.08H30.28L29.99 31.22C29.98 31.19 29.95 31.15 29.92 31.13C29.89 31.1 29.85 31.09 29.81 31.09C29.77 31.1 29.73 31.11 29.7 31.14C29.67 31.16 29.64 31.2 29.64 31.24L29.35 32.08H28.51C28.47 32.08 28.44 32.09 28.41 32.11C28.37 32.14 28.35 32.17 28.34 32.2C28.33 32.24 28.32 32.27 28.33 32.31C28.34 32.35 28.36 32.38 28.39 32.41L29.11 32.95L28.84 33.81C28.83 33.83 28.82 33.86 28.82 33.89C28.82 33.92 28.83 33.95 28.85 33.98C28.87 34.01 28.9 34.04 28.93 34.05C28.96 34.07 28.99 34.07 29.03 34.07C29.06 34.07 29.09 34.05 29.12 34.03L29.82 33.5L30.49 34.02C30.5 34.03 30.52 34.05 30.55 34.06C30.57 34.07 30.59 34.07 30.62 34.07C30.64 34.07 30.67 34.07 30.69 34.06C30.71 34.05 30.73 34.03 30.75 34.02C30.77 34 30.78 33.98 30.79 33.96C30.8 33.93 30.8 33.91 30.8 33.89C30.8 33.86 30.8 33.84 30.79 33.82L30.52 32.96L31.23 32.41C31.25 32.4 31.27 32.38 31.28 32.35C31.3 32.32 31.3 32.29 31.3 32.27Z"/><path d="M35.6 31.12C35.6 31.07 35.58 31.02 35.54 30.99C35.51 30.95 35.47 30.93 35.42 30.93H34.57L34.28 30.07C34.27 30.04 34.24 30 34.21 29.98C34.18 29.96 34.14 29.94 34.1 29.94C34.06 29.95 34.02 29.96 33.99 29.99C33.96 30.01 33.94 30.05 33.93 30.09L33.64 30.93H32.8C32.76 30.93 32.73 30.94 32.7 30.96C32.67 30.99 32.64 31.02 32.63 31.05C32.62 31.09 32.61 31.13 32.62 31.16C32.63 31.2 32.65 31.23 32.68 31.26L33.4 31.81L33.13 32.66C33.12 32.68 33.11 32.71 33.11 32.74C33.11 32.79 33.13 32.83 33.17 32.87C33.2 32.9 33.25 32.92 33.3 32.92C33.34 32.92 33.38 32.91 33.41 32.88L34.1 32.35L34.78 32.87C34.8 32.89 34.83 32.91 34.87 32.92C34.91 32.92 34.94 32.92 34.98 32.91C35.01 32.89 35.04 32.87 35.06 32.84C35.08 32.81 35.09 32.77 35.09 32.74C35.09 32.72 35.09 32.69 35.08 32.67L34.81 31.81L35.52 31.26C35.54 31.25 35.56 31.22 35.57 31.2C35.59 31.17 35.59 31.14 35.6 31.12Z"/></g><path fill="#fff" d="M31.63 23.1H31.62V22.14C31.62 21.68 31.43 21.23 31.11 20.9C30.78 20.58 30.34 20.39 29.87 20.39C29.64 20.39 29.42 20.44 29.2 20.52C28.99 20.61 28.8 20.74 28.64 20.9C28.47 21.07 28.35 21.26 28.26 21.47C28.17 21.68 28.12 21.91 28.12 22.14V23.1C27.94 23.11 27.77 23.18 27.64 23.32C27.51 23.45 27.44 23.62 27.44 23.81V26.84C27.44 27.03 27.51 27.21 27.65 27.34C27.78 27.48 27.96 27.55 28.14 27.55H31.63C31.82 27.55 32 27.48 32.13 27.34C32.26 27.21 32.34 27.03 32.34 26.84V23.81C32.34 23.71 32.32 23.62 32.28 23.54C32.25 23.45 32.2 23.37 32.13 23.31C32.06 23.24 31.99 23.19 31.9 23.15C31.81 23.12 31.72 23.1 31.63 23.1ZM30.22 25.59V26.15C30.22 26.24 30.18 26.32 30.12 26.39C30.06 26.45 29.97 26.48 29.89 26.48C29.8 26.48 29.71 26.45 29.65 26.39C29.59 26.32 29.55 26.24 29.55 26.15V25.59C29.41 25.52 29.29 25.39 29.22 25.24C29.15 25.09 29.13 24.92 29.17 24.76C29.21 24.6 29.3 24.46 29.43 24.36C29.56 24.25 29.72 24.2 29.89 24.2C30.05 24.2 30.21 24.25 30.34 24.36C30.47 24.46 30.56 24.6 30.6 24.76C30.64 24.92 30.62 25.09 30.55 25.24C30.48 25.39 30.36 25.52 30.22 25.59ZM30.87 23.1H28.87V22.07C28.87 21.94 28.9 21.81 28.95 21.68C29 21.56 29.07 21.45 29.17 21.36C29.26 21.27 29.37 21.19 29.49 21.14C29.61 21.09 29.74 21.07 29.87 21.07C30.14 21.07 30.39 21.17 30.58 21.36C30.76 21.55 30.87 21.8 30.87 22.07L30.87 23.1Z"/><g fill="#5fa7f3"><path d="M27.76 47.95C23.47 47.55 19.37 46 15.88 43.46C12.4 40.93 9.66 37.5 7.95 33.53C7.9 33.4 7.9 33.25 7.95 33.12C8.01 32.99 8.11 32.88 8.24 32.83C8.37 32.77 8.52 32.77 8.65 32.82C8.78 32.87 8.89 32.97 8.95 33.1C10.58 36.89 13.19 40.16 16.52 42.59C19.85 45.01 23.76 46.49 27.86 46.87C28 46.88 28.13 46.95 28.22 47.05C28.31 47.16 28.35 47.3 28.35 47.43C28.34 47.57 28.28 47.7 28.18 47.8C28.08 47.9 27.95 47.95 27.81 47.95L27.76 47.95Z"/><path d="M32.4 47.93C32.27 47.93 32.14 47.88 32.04 47.79C31.94 47.7 31.88 47.58 31.86 47.44C31.85 47.3 31.89 47.16 31.98 47.05C32.07 46.94 32.2 46.86 32.34 46.85C36.78 46.4 40.99 44.66 44.45 41.84C47.91 39.03 50.48 35.26 51.84 31C53.19 26.75 53.28 22.19 52.08 17.88C50.89 13.58 48.46 9.72 45.11 6.77C45.06 6.73 45.01 6.67 44.98 6.61C44.95 6.54 44.93 6.47 44.93 6.4C44.92 6.33 44.93 6.26 44.95 6.19C44.98 6.12 45.01 6.06 45.06 6.01C45.15 5.9 45.29 5.83 45.43 5.82C45.58 5.81 45.72 5.86 45.83 5.96C49.34 9.04 51.87 13.08 53.12 17.59C54.37 22.1 54.28 26.87 52.86 31.33C51.45 35.79 48.76 39.73 45.13 42.68C41.51 45.63 37.1 47.45 32.46 47.93C32.44 47.93 32.42 47.93 32.4 47.93Z"/><path d="M30 42.03C20.09 42.03 12.02 33.95 12.02 24.03C12.02 23.77 12.03 23.51 12.04 23.25C12.05 23.11 12.11 22.98 12.22 22.88C12.32 22.79 12.46 22.74 12.6 22.75C12.74 22.75 12.88 22.81 12.97 22.92C13.07 23.02 13.12 23.16 13.12 23.3C13.11 23.54 13.11 23.78 13.11 24.03C13.11 33.35 20.69 40.94 30 40.94C39.32 40.94 46.9 33.35 46.9 24.03C46.9 21.14 46.16 18.3 44.76 15.78C44.69 15.66 44.68 15.51 44.72 15.37C44.76 15.24 44.85 15.12 44.98 15.05C45.1 14.98 45.24 14.96 45.38 15C45.52 15.04 45.64 15.13 45.71 15.25C47.2 17.93 47.99 20.95 47.98 24.03C47.98 33.95 39.92 42.03 30 42.03Z"/><path d="M30 39.19C26.61 39.21 23.31 38.06 20.64 35.95C20.53 35.86 20.45 35.73 20.44 35.59C20.42 35.45 20.46 35.3 20.55 35.19C20.64 35.07 20.77 35 20.91 34.98C21.05 34.97 21.2 35.01 21.31 35.1C24.2 37.37 27.86 38.42 31.51 38.02C35.16 37.63 38.52 35.82 40.86 32.98C40.95 32.87 41.08 32.81 41.22 32.8C41.36 32.79 41.5 32.83 41.61 32.92C41.72 33.01 41.79 33.14 41.8 33.28C41.82 33.42 41.78 33.56 41.69 33.67C40.27 35.4 38.49 36.79 36.47 37.75C34.45 38.7 32.24 39.2 30 39.19Z"/><path d="M41.95 41.04C39.73 42.62 37.22 43.74 34.56 44.34C31.91 44.94 29.16 45.01 26.48 44.55C26.41 44.53 26.34 44.51 26.28 44.47C26.22 44.43 26.17 44.38 26.13 44.32C26.09 44.27 26.06 44.2 26.04 44.13C26.03 44.06 26.02 43.99 26.04 43.92C26.05 43.85 26.07 43.78 26.11 43.72C26.15 43.66 26.2 43.61 26.26 43.57C26.32 43.53 26.38 43.5 26.45 43.48C26.52 43.47 26.59 43.46 26.66 43.48C29.3 43.93 32 43.84 34.59 43.21C37.19 42.58 39.64 41.43 41.78 39.83C43.92 38.22 45.71 36.2 47.05 33.88C48.38 31.56 49.23 28.99 49.54 26.33C49.56 26.18 49.63 26.05 49.75 25.96C49.86 25.87 50 25.83 50.15 25.85C50.29 25.87 50.42 25.94 50.51 26.05C50.6 26.17 50.64 26.31 50.62 26.45C50.28 29.36 49.33 32.16 47.84 34.67C46.34 37.19 44.34 39.36 41.95 41.04Z"/><path d="M23.09 43.42C23.02 43.47 22.93 43.51 22.84 43.52C22.76 43.53 22.67 43.52 22.58 43.49C19.35 42.26 16.48 40.24 14.23 37.62C11.97 35 10.4 31.85 9.67 28.47C8.93 25.09 9.05 21.58 10.01 18.25C10.97 14.93 12.74 11.9 15.16 9.43C15.19 9.41 15.21 9.39 15.24 9.37C15.35 9.29 15.48 9.26 15.62 9.27C15.75 9.29 15.87 9.36 15.96 9.46C16.05 9.56 16.09 9.7 16.09 9.83C16.09 9.97 16.03 10.09 15.94 10.19C13.64 12.53 11.96 15.4 11.05 18.55C10.14 21.71 10.03 25.03 10.73 28.24C11.42 31.45 12.91 34.43 15.05 36.91C17.18 39.4 19.91 41.31 22.97 42.47C23.06 42.51 23.14 42.57 23.2 42.64C23.26 42.72 23.3 42.81 23.31 42.91C23.33 43.01 23.31 43.11 23.27 43.2C23.23 43.29 23.17 43.36 23.09 43.42Z"/><path d="M50.25 21.11C50.19 21.15 50.11 21.18 50.03 21.2C49.89 21.22 49.74 21.19 49.63 21.1C49.51 21.02 49.43 20.89 49.41 20.75C48.88 17.63 47.6 14.68 45.7 12.15C43.79 9.63 41.31 7.6 38.45 6.23C35.6 4.87 32.46 4.22 29.3 4.32C26.14 4.43 23.05 5.3 20.3 6.85C20.18 6.92 20.03 6.94 19.9 6.91C19.76 6.87 19.65 6.79 19.57 6.67C19.5 6.55 19.47 6.41 19.5 6.28C19.53 6.14 19.6 6.02 19.72 5.94C19.73 5.93 19.75 5.92 19.76 5.91C22.67 4.27 25.93 3.35 29.26 3.24C32.6 3.12 35.91 3.81 38.92 5.25C41.93 6.69 44.55 8.83 46.57 11.5C48.58 14.16 49.92 17.28 50.48 20.57C50.49 20.67 50.48 20.78 50.44 20.87C50.4 20.97 50.34 21.05 50.25 21.11Z"/><path d="M17.89 32.75C17.8 32.75 17.71 32.72 17.63 32.68C17.56 32.64 17.49 32.58 17.44 32.51C15.33 29.38 14.47 25.58 15.01 21.85C15.55 18.12 17.46 14.72 20.37 12.32C20.42 12.28 20.48 12.24 20.55 12.22C20.62 12.2 20.69 12.19 20.76 12.2C20.83 12.21 20.9 12.23 20.96 12.26C21.03 12.3 21.08 12.34 21.13 12.4C21.17 12.45 21.21 12.51 21.23 12.58C21.25 12.65 21.26 12.72 21.25 12.79C21.24 12.86 21.22 12.93 21.19 13C21.16 13.06 21.11 13.12 21.06 13.16C18.36 15.39 16.59 18.54 16.08 22C15.58 25.47 16.38 29 18.34 31.9C18.38 31.96 18.41 32.02 18.42 32.09C18.44 32.16 18.44 32.24 18.42 32.31C18.41 32.38 18.38 32.44 18.34 32.5C18.3 32.56 18.25 32.62 18.19 32.66C18.1 32.72 18 32.75 17.89 32.75Z"/><path d="M43.5 30.18C43.43 30.18 43.36 30.17 43.29 30.14C43.23 30.11 43.17 30.07 43.12 30.02C43.07 29.97 43.03 29.91 43 29.84C42.97 29.78 42.96 29.71 42.96 29.64C42.96 29.56 42.97 29.49 43 29.43C43.71 27.72 44.08 25.88 44.07 24.03C44.07 16.26 37.76 9.95 30.01 9.95C28.08 9.94 26.18 10.34 24.41 11.1C24.35 11.13 24.27 11.15 24.2 11.15C24.07 11.15 23.95 11.1 23.86 11.03C23.76 10.95 23.69 10.84 23.67 10.72C23.64 10.59 23.66 10.47 23.72 10.35C23.77 10.24 23.87 10.16 23.98 10.11C25.88 9.28 27.93 8.86 30.01 8.86C38.36 8.86 45.16 15.66 45.16 24.03C45.16 26.02 44.77 28 44 29.84C43.96 29.94 43.89 30.03 43.8 30.09C43.71 30.15 43.61 30.18 43.5 30.18Z"/><path d="M6.54 24.57C6.4 24.57 6.26 24.51 6.16 24.41C6.06 24.31 6 24.17 6 24.03C6 10.78 16.77 0 30 0C33.95 0 37.84 0.97 41.32 2.83C41.43 2.89 41.51 2.98 41.56 3.09C41.61 3.2 41.62 3.33 41.59 3.44C41.56 3.56 41.49 3.67 41.4 3.74C41.3 3.81 41.18 3.85 41.06 3.85C40.97 3.85 40.88 3.83 40.81 3.79C37.48 2.01 33.77 1.09 30 1.09C17.36 1.09 7.08 11.38 7.08 24.03C7.08 24.17 7.03 24.31 6.92 24.41C6.82 24.51 6.69 24.57 6.54 24.57Z"/><path d="M14.04 17.52C13.97 17.52 13.89 17.51 13.82 17.48C13.69 17.42 13.59 17.31 13.54 17.18C13.49 17.04 13.49 16.89 13.55 16.76C14.73 14.08 16.55 11.74 18.84 9.92C21.13 8.1 23.83 6.87 26.7 6.33C29.57 5.8 32.53 5.97 35.32 6.83C38.11 7.7 40.65 9.23 42.72 11.3C42.82 11.4 42.87 11.54 42.87 11.68C42.87 11.82 42.81 11.96 42.71 12.06C42.61 12.16 42.48 12.22 42.33 12.22C42.19 12.22 42.06 12.16 41.95 12.07C40.01 10.12 37.62 8.68 35 7.87C32.38 7.06 29.6 6.9 26.9 7.4C24.2 7.91 21.66 9.06 19.51 10.77C17.36 12.48 15.65 14.68 14.54 17.2C14.5 17.3 14.43 17.38 14.34 17.44C14.25 17.49 14.15 17.52 14.04 17.52Z"/></g><g fill="#6ba6f1"><circle cx="43.42" cy="4.58" r="0.52"/><circle cx="43.93" cy="13.49" r="0.52"/><circle cx="50.29" cy="23.55" r="0.52"/><circle cx="42.53" cy="31.57" r="0.52"/><circle cx="30.2" cy="47.48" r="0.52"/><circle cx="24.48" cy="43.53" r="0.53"/><circle cx="19.26" cy="33.86" r="0.52"/><circle cx="7.05" cy="29.02" r="0.52"/><circle cx="12.9" cy="19.98" r="0.52"/><circle cx="22.31" cy="11.46" r="0.52"/><circle cx="17.48" cy="7.76" r="0.52"/></g></svg>
